<?xml version="1.0" encoding="UTF-8"?>
<svg width="723px" height="469px" viewBox="0 0 723 469" version="1.1" xmlns="http://www.w3.org/2000/svg" xmlns:xlink="http://www.w3.org/1999/xlink">
    <!-- Generator: Sketch 40.3 (33839) - http://www.bohemiancoding.com/sketch -->
    <title>Group</title>
    <desc>Created with Sketch.</desc>
    <defs></defs>
    <g id="Page-2" stroke="none" stroke-width="1" fill="none" fill-rule="evenodd">
        <g id="Artboard-2" transform="translate(-212.000000, -24.000000)" fill="#FFFFFF">
            <g id="Group" transform="translate(212.000000, 24.000000)">
                <path d="M46.2613108,275.520122 C46.7203734,261.366244 18.9786392,275.520122 5.55871474,231.560378 C-7.86120968,187.600634 5.55871451,56.6034483 18.9786392,56.6034483 C32.3985638,56.6034483 30.9385698,166.284447 42.1760269,166.284447 C53.4134839,166.284447 52.8152911,56.6034483 68.0654683,56.6034483 C83.3156455,56.6034483 77.7712001,166.284447 91.4862135,166.284447 C105.201227,166.284447 103.219812,56.6034483 117.303594,56.6034483 C131.387376,56.6034483 147.079834,187.600623 132.191714,231.560372 C117.303594,275.520122 87.3533163,263.206836 87.4009295,275.520122 C87.7095999,355.345543 91.4862117,420.482759 91.4862117,420.482759 L42.1760251,420.482759 C42.1760251,420.482759 43.7474467,353.027909 46.2613108,275.520122 Z" id="Rectangle-1"></path>
                <path d="M677.059899,296.950259 C677.059899,296.950259 649.837884,283.681666 643.466895,268.697247 C637.095905,253.712828 648.528809,159.746022 664.422316,116.786747 C670.749108,99.6857735 679.261752,79.689073 692.55568,67.2937905 C701.009841,59.4111148 711.996487,52.2726269 717.42737,59.7832086 C722.858253,67.2937902 722.858252,420.482759 722.858252,420.482759 L673.852389,420.482759 L677.059899,296.950259 Z" id="Rectangle-2"></path>
                <path d="M387.424421,469 C516.697116,469 621.493342,364.010774 621.493342,234.5 C621.493342,104.989226 516.697116,0 387.424421,0 C258.151725,0 153.3555,104.989226 153.3555,234.5 C153.3555,364.010774 258.151725,469 387.424421,469 Z M387.424421,428.568966 C494.408721,428.568966 581.136631,341.68133 581.136631,234.5 C581.136631,127.31867 494.408721,40.4310345 387.424421,40.4310345 C280.440121,40.4310345 193.71221,127.31867 193.71221,234.5 C193.71221,341.68133 280.440121,428.568966 387.424421,428.568966 Z" id="Combined-Shape"></path>
                <polygon id="Triangle-7" transform="translate(394.123912, 225.039416) rotate(45.000000) translate(-394.123912, -225.039416) " points="394.123912 105.234128 489.476199 344.844704 394.123912 289.630556 298.771626 344.844704"></polygon>
            </g>
        </g>
    </g>
</svg>